<svg xmlns="http://www.w3.org/2000/svg" viewBox="0 0 512 512" style="enable-background:new 0 0 512 512" xml:space="preserve"><path style="fill:#cee8fa" d="M114.4 220.72h274.81v276.96H114.4z"/><path style="fill:#2d527c" d="M182.75 422.3c-7.9 0-14.32-6.4-14.32-14.3v-91.61a14.31 14.31 0 0 1 28.63 0v91.6c0 7.9-6.4 14.31-14.31 14.31zM251.8 422.3c-7.9 0-14.3-6.4-14.3-14.3v-91.61a14.31 14.31 0 0 1 28.62 0v91.6c0 7.9-6.4 14.31-14.31 14.31zM320.87 422.3c-7.9 0-14.31-6.4-14.31-14.3v-91.61a14.31 14.31 0 0 1 28.62 0v91.6c0 7.9-6.4 14.31-14.31 14.31z"/><path style="fill:#2d527c" d="M434.57 135.96a58.42 58.42 0 0 0-36.85-25.83 14.3 14.3 0 1 0-6.21 27.95 29.98 29.98 0 0 1 18.91 13.25 29.98 29.98 0 0 1 4 22.75L407 207.5 99.6 139.22l7.43-33.42a30.21 30.21 0 0 1 36-22.91l145.2 32.25a14.32 14.32 0 0 0 6.2-27.95L212 68.9l8.32-37.5 122.96 27.3-11.43 51.47a14.31 14.31 0 0 0 27.95 6.21l14.53-65.44a14.31 14.31 0 0 0-10.87-17.07L212.56.34a14.32 14.32 0 0 0-17.08 10.87l-11.43 51.47-34.82-7.74A58.87 58.87 0 0 0 79.08 99.6L68.55 147a14.31 14.31 0 0 0 10.87 17.07L270.1 206.4H114.4c-7.9 0-14.31 6.41-14.31 14.32v276.96c0 7.9 6.4 14.31 14.31 14.31h274.81c7.9 0 14.32-6.4 14.32-14.31V236.05l11.24 2.5a14.24 14.24 0 0 0 10.79-1.9 14.32 14.32 0 0 0 6.28-8.97l10.53-47.4a58.42 58.42 0 0 0-7.8-44.32zM374.9 483.37H128.72V235.04H374.9v248.33z"/></svg>