<svg xmlns="http://www.w3.org/2000/svg" viewBox="0 0 451.39 451.39" style="enable-background:new 0 0 451.39 451.39" xml:space="preserve"><path style="fill:#fff" d="M437.03 439.43c0 .79-.31 1.54-.87 2.1a3.05 3.05 0 0 1-4.2 0l-11.91-11.92 4.2-4.19 11.9 11.91c.57.56.88 1.31.88 2.1z"/><path d="m18.27 68.58 9.13 9.13 44.94-44.94-9.13-9.13a13.24 13.24 0 0 0-9.41-3.9c-3.56 0-6.9 1.39-9.41 3.9L18.27 49.76a13.22 13.22 0 0 0-3.9 9.41c0 3.55 1.39 6.89 3.9 9.41zm262.58 284.47a261.75 261.75 0 0 0 35.74 29.88l60.97-60.97a262.46 262.46 0 0 0-29.9-35.73L105.49 44.04l-66.82 66.82 242.19 242.19zm43.36 34.99a262.6 262.6 0 0 0 36.23 19.49l47.86 21.11 14.96-14.97-21.1-47.85a261.01 261.01 0 0 0-19.5-36.23l-58.45 58.45zm107.75 53.49a3.05 3.05 0 0 0 4.2 0 2.96 2.96 0 0 0 0-4.2l-11.91-11.91-4.2 4.19 11.9 11.92zm10.56-10.56a11.97 11.97 0 0 1-16.92 16.92l-11.91-11.91-3.38 3.38-53.5-23.59a270.15 270.15 0 0 1-82.32-56.36L18.68 103.61a12.1 12.1 0 0 1-3.55-8.6 12.1 12.1 0 0 1 3.55-8.59l2.36-2.35-9.13-9.13c-4.22-4.21-6.54-9.81-6.54-15.77s2.32-11.56 6.54-15.78l26.12-26.11c4.2-4.22 9.8-6.54 15.77-6.54s11.56 2.32 15.77 6.54l9.13 9.12 2.35-2.34a12.16 12.16 0 0 1 17.18 0l26.87 26.87 10.78-10.78-33.8-33.79L108.47 0l173.59 173.6a43.58 43.58 0 0 0 38.4 12.07l1.57 8.86a52.56 52.56 0 0 1-46.33-14.57L142.24 46.51l-10.78 10.78 222.58 222.57a270.27 270.27 0 0 1 56.36 82.32l23.58 53.5-3.37 3.37 11.9 11.92zM32.3 104.49l66.82-66.82-7.25-7.25a3.17 3.17 0 0 0-4.46 0L25.05 92.79c-.6.59-.92 1.38-.92 2.22 0 .85.32 1.64.92 2.23l7.25 7.25z"/><path style="fill:#a7b6c4" d="M382.66 329.59a261.01 261.01 0 0 1 19.5 36.23l21.1 47.85-14.96 14.97-47.86-21.11a262.6 262.6 0 0 1-36.23-19.49l58.45-58.45z"/><path style="fill:#4489d3" d="M347.67 286.23a262.46 262.46 0 0 1 29.89 35.73l-60.97 60.97a261.75 261.75 0 0 1-35.74-29.88L38.65 110.86l66.83-66.82 242.19 242.19z"/><path style="fill:#a7b6c4" d="M89.64 29.5c.8 0 1.6.31 2.23.92l7.25 7.25-66.82 66.82-7.25-7.25a3.09 3.09 0 0 1-.92-2.23c0-.84.32-1.63.92-2.22L87.4 30.42a3.17 3.17 0 0 1 2.23-.92z"/><path style="fill:#4489d3" d="M44.39 23.64a13.22 13.22 0 0 1 9.4-3.9c3.56 0 6.9 1.39 9.42 3.9l9.13 9.13L27.4 77.71l-9.13-9.13a13.26 13.26 0 0 1-3.9-9.41c0-3.56 1.39-6.9 3.9-9.41l26.12-26.12z"/></svg>